<?xml version="1.0" encoding="UTF-8"?>
<svg version="1.1" xmlns="http://www.w3.org/2000/svg" width="1563" height="1563">
<path d="M0 0 C4.0685433 0.12030524 8.13747233 0.13005154 12.20751977 0.15248275 C19.88404456 0.21110678 27.55531318 0.36638272 35.22954184 0.55812305 C43.97876523 0.77188756 52.72826518 0.87529989 61.4794575 0.97033632 C79.45257766 1.16794834 97.42083305 1.50124679 115.38993859 1.92648482 C114.45708946 3.02608494 113.52258683 4.1242824 112.58741784 5.22191024 C112.06719993 5.83362358 111.54698201 6.44533692 111.01099992 7.07558703 C108.4341252 10.01781484 105.67502469 12.76466912 102.89775109 15.51632857 C102.30694757 16.10571715 101.71614404 16.69510573 101.10743737 17.30235457 C99.24563455 19.15862209 97.38036115 21.01135567 95.51493859 22.86398482 C94.24126849 24.13263155 92.96782888 25.40150973 91.69462609 26.67062545 C88.59571816 29.75859037 85.49369558 32.84339411 82.38993859 35.92648482 C83.94406457 35.14072066 83.94406457 35.14072066 85.52958703 34.33908248 C139.83473488 6.97083688 200.38812228 -1.39756539 259.12529016 17.82150435 C282.29612142 25.9818923 304.35168669 38.26150148 321.94560266 55.51730514 C323.42725287 56.96289084 324.93380376 58.37865356 326.44462609 59.79367232 C337.8432428 70.62633614 345.91057084 83.17949047 353.38993859 96.92648482 C349.93254511 100.50463286 346.32948675 103.69507969 342.38993859 106.73898482 C341.79527795 107.20199996 341.2006173 107.6650151 340.58793664 108.142061 C338.52627734 109.74256992 336.45892059 111.33545371 334.38993859 112.92648482 C333.59925988 113.53492232 332.80858117 114.14335982 331.9939425 114.77023482 C321.68747046 122.68815952 311.31325644 130.5037865 300.81694055 138.16842818 C295.79959445 141.84409439 290.934633 145.62940639 286.20243859 149.66867232 C284.38993859 150.92648482 284.38993859 150.92648482 281.38993859 150.92648482 C280.95165734 150.0782817 280.51337609 149.23007857 280.06181359 148.35617232 C266.62992493 123.17772371 244.50595545 106.34393464 217.38993859 97.92648482 C190.32738767 90.4529001 161.59604635 92.17141072 136.80912805 105.87838912 C109.70869283 121.56085698 93.886228 149.01316606 85.96025109 178.53805709 C84.39795202 184.62185692 83.12892649 190.68331117 82.38993859 196.92648482 C82.26747766 197.90488326 82.14501672 198.8832817 82.01884484 199.89132857 C78.67941465 233.90404354 85.72818654 270.13150885 106.38993859 297.92648482 C109.89136398 302.10874293 113.56048701 306.04369826 117.38993859 309.92648482 C118.17111047 310.72054732 118.95228234 311.51460982 119.75712609 312.33273482 C126.82871701 319.09479482 135.02203198 323.95349814 143.38993859 328.92648482 C127.27909498 346.74959201 90.17288156 355.21386876 67.69999719 361.28244185 C64.8944874 362.06461632 62.13856329 362.96423598 59.38993859 363.92648482 C61.37307412 366.57959856 62.63252327 368.21313938 65.38993859 369.92648482 C69.21631597 370.23107208 72.68390499 369.33123327 76.38993859 368.42648482 C78.01645349 368.0624858 78.01645349 368.0624858 79.67582726 367.69113326 C100.66473542 362.74626611 121.02757373 355.37916244 140.38993859 345.92648482 C142.15672645 345.08764986 143.92365835 344.24911822 145.69071984 343.41085982 C159.46750328 336.78368004 172.48937473 329.11606507 185.38993859 320.92648482 C186.01046105 320.53364303 186.63098351 320.14080123 187.27030969 319.73605514 C201.92235402 310.39129692 215.86856256 299.82889401 229.38993859 288.92648482 C230.33095422 288.16851607 231.27196984 287.41054732 232.24150109 286.62960982 C234.97125849 284.41119027 237.68363441 282.17344459 240.38993859 279.92648482 C241.39411828 279.09761764 242.39829797 278.26875045 243.43290734 277.41476607 C251.37950857 270.80787796 258.94590023 263.84255481 266.45634484 256.74679732 C268.41582455 254.90211542 270.38537532 253.06885489 272.35868859 251.23898482 C285.38517561 239.17558916 285.38517561 239.17558916 297.44071984 226.15695357 C299.41659301 223.89598448 301.44912866 221.69374291 303.49491906 219.4960649 C310.73707046 212.27735161 310.73707046 212.27735161 316.38993859 203.92648482 C316.07577539 201.50495037 315.69158747 200.24219205 313.99125695 198.46261764 C313.40997033 198.02272506 312.82868371 197.58283248 312.22978234 197.12960982 C311.60136437 196.64621139 310.97294641 196.16281295 310.32548547 195.66476607 C309.66613 195.17363326 309.00677453 194.68250045 308.32743859 194.17648482 C307.33260461 193.41658248 307.33260461 193.41658248 306.31767297 192.64132857 C304.68198049 191.39396597 303.03684275 190.15900665 301.38993859 188.92648482 C305.12001266 185.61999966 309.37705234 184.28826776 313.99931359 182.66085982 C314.86281426 182.35025619 315.72631494 182.03965255 316.61598229 181.71963668 C319.45521051 180.69931616 322.2975825 179.68805521 325.13993859 178.67648482 C329.1230697 177.24796472 333.10428993 175.81416449 337.08525109 174.37960982 C338.10053887 174.01432174 339.11582665 173.64903365 340.16188073 173.27267623 C352.56536761 168.79962105 364.89516874 164.1309662 377.22099328 159.44894576 C378.81115448 158.84768743 380.40132331 158.24644929 381.99150109 157.64523482 C382.71650811 157.36790511 383.44151513 157.0905754 384.18849206 156.80484176 C389.16412676 154.92648482 389.16412676 154.92648482 391.38993859 154.92648482 C390.08668224 166.70258696 388.48061559 178.40272921 386.63993859 190.10617232 C386.37847695 191.77861646 386.11708515 193.45107152 385.85575891 195.12353683 C385.31354175 198.58769081 384.76859083 202.05140207 384.22196984 205.51486373 C383.52199743 209.95323172 382.83205629 214.39309946 382.14439416 218.83338904 C381.61068976 222.26905908 381.07029821 225.70365239 380.52800012 229.13797545 C380.27041957 230.77627108 380.01527048 232.41495093 379.76261926 234.05401397 C379.41104254 236.33022304 379.05013156 238.60476134 378.68681359 240.87912154 C378.48410851 242.17131606 378.28140344 243.46351058 378.07255578 244.79486251 C377.38993859 247.92648482 377.38993859 247.92648482 375.38993859 250.92648482 C373.40993859 249.27648482 371.42993859 247.62648482 369.38993859 245.92648482 C369.05993859 304.00648482 368.72993859 362.08648482 368.38993859 421.92648482 C342.31993859 421.92648482 316.24993859 421.92648482 289.38993859 421.92648482 C289.05993859 409.05648482 288.72993859 396.18648482 288.38993859 382.92648482 C284.42993859 386.22648482 280.46993859 389.52648482 276.38993859 392.92648482 C274.00370069 394.68896449 271.67708804 396.37610846 269.20243859 397.98898482 C268.58207726 398.39544234 267.96171594 398.80189986 267.32255578 399.22067428 C244.38922169 413.96965334 218.2693994 423.97409767 190.74540734 424.12960982 C189.93614297 424.1353099 189.1268786 424.14100997 188.29309106 424.14688277 C186.58458257 424.15627756 184.87605641 424.16284461 183.16752648 424.1667192 C180.62217656 424.17631614 178.0776741 424.20734647 175.53251672 424.23898482 C160.59269137 424.33584326 145.99239406 422.58820991 131.57743859 418.55148482 C130.80682092 418.34305953 130.03620324 418.13463424 129.24223351 417.91989303 C122.15527688 415.95736247 115.25486171 413.55822533 108.38993859 410.92648482 C108.05993859 411.25648482 107.72993859 411.58648482 107.38993859 411.92648482 C107.90491906 412.43622848 108.41989953 412.94597213 108.95048547 413.47116256 C111.26620903 415.7661913 113.5781164 418.0650265 115.88993859 420.36398482 C116.70075891 421.16642623 117.51157922 421.96886764 118.34696984 422.79562545 C119.11396203 423.55939498 119.88095422 424.32316451 120.67118859 425.11007857 C121.73949914 426.1705339 121.73949914 426.1705339 122.82939172 427.25241256 C124.38993859 428.92648482 124.38993859 428.92648482 124.38993859 429.92648482 C101.5999752 434.31759683 78.7880816 437.08990179 55.63993859 438.67648482 C54.77871754 438.73728728 53.91749649 438.79808974 53.03017783 438.8607347 C7.34102938 441.99767885 -29.18275542 436.34008127 -64.52494395 405.5794239 C-80.674397 391.22400201 -95.68308719 375.82617188 -110.29756141 359.92648482 C-111.45340767 358.67200451 -111.45340767 358.67200451 -112.63260436 357.39218116 C-132.73315006 335.54645933 -152.03829187 313.08396313 -170.61006141 289.92648482 C-175.54681792 294.06524224 -180.18811786 298.36900417 -184.72285438 302.94162154 C-185.39526664 303.61549407 -186.0676789 304.2893666 -186.76046729 304.98365951 C-188.20747561 306.43444907 -189.65332844 307.88639186 -191.09812522 309.33938384 C-193.38170698 311.63579591 -195.66845689 313.9290107 -197.95603919 316.22143722 C-202.80186579 321.07864709 -207.64373247 325.93979253 -212.48506141 330.80148482 C-218.11664062 336.45663931 -223.74981744 342.11018296 -229.38719535 347.75955749 C-231.64556217 350.02443031 -233.90091078 352.29228016 -236.15617347 354.56024337 C-237.52851429 355.93621354 -238.90099391 357.31204529 -240.27363563 358.68771529 C-240.90424399 359.32348998 -241.53485236 359.95926467 -242.18457007 360.61430526 C-243.64088124 362.07079595 -245.12264244 363.50177707 -246.61006141 364.92648482 C-246.94006141 364.92648482 -247.27006141 364.92648482 -247.61006141 364.92648482 C-248.00857665 345.27215929 -248.30763191 325.61866192 -248.49086833 305.96112323 C-248.57824204 296.83190462 -248.69717183 287.70520707 -248.89253211 278.57760787 C-249.06288828 270.61439749 -249.17185869 262.65301345 -249.20956582 254.68803138 C-249.2315863 250.47600867 -249.28265213 246.26920639 -249.40747237 242.05887198 C-250.23326777 213.08071051 -250.23326777 213.08071051 -241.8023212 203.81119609 C-238.95028995 201.14952841 -236.00786256 198.76984851 -232.82340789 196.51840186 C-226.51498733 191.98116277 -220.99058943 186.44609144 -215.54756141 180.92648482 C-214.91197303 180.28710982 -214.27638465 179.64773482 -213.62153602 178.98898482 C-211.6152249 176.97060086 -209.6122214 174.94898606 -207.61006141 172.92648482 C-192.64344846 157.8078163 -192.64344846 157.8078163 -186.58271766 152.67648482 C-181.8741692 148.49939629 -177.52945151 143.90592488 -173.11006141 139.42648482 C-162.07144365 128.23787614 -162.07144365 128.23787614 -157.67256141 124.48898482 C-151.82160834 119.49017057 -146.5141997 113.8975968 -141.11006141 108.42648482 C-129.00734952 96.17378359 -129.00734952 96.17378359 -124.67256141 92.48898482 C-118.45879118 87.19337835 -112.84573839 81.22749906 -107.11006141 75.42648482 C-93.94472878 62.11118095 -93.94472878 62.11118095 -87.76045203 56.8542192 C-82.30884398 51.96708282 -77.25601826 46.6310612 -72.11006141 41.42648482 C-69.74851287 39.038035 -67.38345841 36.65313487 -65.01631141 34.27023482 C-64.49210608 33.73773116 -63.96790076 33.2052275 -63.42781043 32.65658736 C-60.68777457 29.89894726 -57.89388088 27.32164132 -54.89846778 24.84269881 C-51.80775942 22.17020803 -49.33301467 19.40699159 -46.86828589 16.1518724 C-33.6038349 -0.60663278 -19.75418916 -0.68456328 0 0 Z M12.38993859 104.92648482 C-22.59006141 139.90648482 -57.57006141 174.88648482 -93.61006141 210.92648482 C-88.68660269 216.69204922 -88.68660269 216.69204922 -83.50975013 222.14705062 C-82.75264243 222.90553298 -81.99553473 223.66401534 -81.21548438 224.44548202 C-80.40484031 225.25253081 -79.59419623 226.05957961 -78.75898719 226.89108443 C-77.89004325 227.7601744 -77.02109931 228.62926436 -76.12582374 229.52469039 C-73.76235197 231.88758827 -71.39669613 234.24825743 -69.03000855 236.60793161 C-66.54983215 239.08182163 -64.07252103 241.55857765 -61.59489417 244.03502059 C-56.91156803 248.71524892 -52.22570051 253.39292408 -47.5388962 258.06966907 C-42.19950663 263.39784919 -36.86298435 268.72889719 -31.52669144 274.0601784 C-20.55765066 285.01878991 -9.58504577 295.97382558 1.38993859 306.92648482 C2.63514053 304.9982951 2.63514053 304.9982951 1.86430383 303.07663131 C1.41099694 301.9485002 1.41099694 301.9485002 0.94853234 300.79757857 C0.61490685 299.94043258 0.28128137 299.08328658 -0.06245399 298.20016646 C-0.42878943 297.26422652 -0.79512488 296.32828658 -1.17256141 295.36398482 C-5.7771599 283.11100164 -9.04286369 270.75414509 -11.61006141 257.92648482 C-11.78940223 257.04073775 -11.96874305 256.15499068 -12.15351844 255.24240279 C-17.16474201 229.05166827 -17.28913388 198.00531628 -11.61006141 171.92648482 C-11.41138465 171.00883346 -11.21270789 170.09118209 -11.00801063 169.1457231 C-6.67349597 149.84333389 0.03931616 131.73498082 9.24052453 114.23239303 C9.65076867 113.44824019 10.06101281 112.66408736 10.48368859 111.85617232 C11.03572961 110.82339156 11.03572961 110.82339156 11.59892297 109.76974654 C12.58711857 107.80131036 12.58711857 107.80131036 12.38993859 104.92648482 Z " fill="#000000" transform="translate(706.6100614070892,429.07351517677307)"/>
<path d="M0 0 C2.5043439 2.22386058 4.92603558 4.52667896 7.31738281 6.87207031 C8.79903303 8.31765602 10.30558391 9.73341873 11.81640625 11.1484375 C23.21502295 21.98110131 31.282351 34.53425564 38.76171875 48.28125 C35.30432527 51.85939804 31.70126691 55.04984487 27.76171875 58.09375 C27.16705811 58.55676514 26.57239746 59.01978027 25.9597168 59.49682617 C23.8980575 61.0973351 21.83070074 62.69021889 19.76171875 64.28125 C18.97104004 64.8896875 18.18036133 65.498125 17.36572266 66.125 C7.05925062 74.04292469 -3.3149634 81.85855167 -13.8112793 89.52319336 C-18.82862539 93.19885957 -23.69358685 96.98417156 -28.42578125 101.0234375 C-30.23828125 102.28125 -30.23828125 102.28125 -33.23828125 102.28125 C-33.89570312 101.00894531 -33.89570312 101.00894531 -34.56640625 99.7109375 C-47.99829492 74.53248889 -70.12226439 57.69869982 -97.23828125 49.28125 C-124.30083217 41.80766528 -153.0321735 43.5261759 -177.8190918 57.2331543 C-204.91952702 72.91562215 -220.74199184 100.36793124 -228.66796875 129.89282227 C-230.23026782 135.97662209 -231.49929335 142.03807634 -232.23828125 148.28125 C-232.36074219 149.25964844 -232.48320313 150.23804688 -232.609375 151.24609375 C-235.9488052 185.25880872 -228.9000333 221.48627403 -208.23828125 249.28125 C-204.73685586 253.46350811 -201.06773283 257.39846344 -197.23828125 261.28125 C-196.45710937 262.0753125 -195.6759375 262.869375 -194.87109375 263.6875 C-187.79950283 270.44956 -179.60618786 275.30826332 -171.23828125 280.28125 C-190.94337581 302.08060582 -239.86332611 313.21920448 -268.23828125 316.28125 C-269.15222656 316.38308594 -270.06617188 316.48492188 -271.0078125 316.58984375 C-277.1004085 315.74691015 -281.69267391 307.01970524 -285.2890625 302.34765625 C-293.65643989 291.23506965 -300.62289779 279.50013653 -307.23828125 267.28125 C-307.6235498 266.58854004 -308.00881836 265.89583008 -308.40576172 265.18212891 C-325.07495982 235.14135134 -330.69764053 200.0606512 -330.55078125 166.09375 C-330.5486261 165.19327942 -330.54647095 164.29280884 -330.54425049 163.36505127 C-330.49230616 149.82079255 -330.13087485 136.56431011 -327.23828125 123.28125 C-327.03960449 122.36359863 -326.84092773 121.44594727 -326.63623047 120.50048828 C-320.24271228 92.02897843 -308.97561713 65.51160311 -291.23828125 42.28125 C-290.50480469 41.31574219 -289.77132812 40.35023438 -289.015625 39.35546875 C-276.88763589 23.85189619 -263.10255086 9.92125572 -247.23828125 -1.71875 C-246.32852539 -2.39502441 -246.32852539 -2.39502441 -245.40039062 -3.08496094 C-176.88592796 -53.62782894 -68.67354226 -56.50010082 0 0 Z " fill="#535355" transform="translate(1021.23828125,477.71875)"/>
<path d="M0 0 C-1.30325636 11.77610213 -2.90932301 23.47624439 -4.75 35.1796875 C-5.01146164 36.85213164 -5.27285345 38.5245867 -5.53417969 40.197052 C-6.07639684 43.66120599 -6.62134777 47.12491725 -7.16796875 50.58837891 C-7.86794117 55.0267469 -8.5578823 59.46661463 -9.24554443 63.90690422 C-9.77924884 67.34257426 -10.31964038 70.77716757 -10.86193848 74.21149063 C-11.11951902 75.84978625 -11.37466812 77.48846611 -11.62731934 79.12752914 C-11.97889605 81.40373822 -12.33980704 83.67827652 -12.703125 85.95263672 C-13.00718262 87.8909285 -13.00718262 87.8909285 -13.31738281 89.86837769 C-14 93 -14 93 -16 96 C-20.18710675 92.48862229 -24.1339676 88.8660324 -28 85 C-29.64864545 83.64444707 -31.31003995 82.30368347 -33 81 C-36.71623225 82.49475119 -38.45582311 84.53880479 -40.875 87.6875 C-50.07120078 99.19019127 -60.49037513 109.57720973 -70.875 120 C-71.75446289 120.88413574 -72.63392578 121.76827148 -73.54003906 122.67919922 C-78.53278853 127.65965127 -83.62690541 132.43358221 -89 137 C-90.12914198 137.97368504 -91.25805678 138.9476336 -92.38671875 139.921875 C-95.32751273 142.44507008 -98.27545943 144.95987618 -101.22265625 147.47558594 C-102.86460851 148.88387576 -104.49628963 150.30300299 -106.125 151.7265625 C-114.61617718 159.09980034 -123.59922135 165.7280579 -132.70019531 172.32617188 C-134.81716483 173.86693015 -136.92289569 175.42132786 -139.0234375 176.984375 C-147.49738841 183.28335249 -156.1375411 189.26084657 -165 195 C-165.71639648 195.46519043 -166.43279297 195.93038086 -167.17089844 196.40966797 C-179.52284624 204.40131946 -192.13746293 211.86125354 -205 219 C-205.72364746 219.4031543 -206.44729492 219.80630859 -207.19287109 220.22167969 C-232.56781436 234.27162467 -259.25621633 244.64863962 -287 253 C-288.24652344 253.38285156 -289.49304688 253.76570312 -290.77734375 254.16015625 C-324.1180246 263.68017761 -359.74364622 263.75203657 -391 248 C-407.57011704 238.7281817 -421.63798494 224.63938568 -427 206 C-430.14943996 190.42419828 -427.39811131 176.4447145 -419.12890625 162.99609375 C-414.02937527 155.81932263 -407.99831893 149.35611412 -401 144 C-401.27714844 144.68964844 -401.55429687 145.37929688 -401.83984375 146.08984375 C-403.09629127 149.2415387 -404.3346965 152.39953158 -405.5625 155.5625 C-405.99691406 156.67753906 -406.43132813 157.79257812 -406.87890625 158.94140625 C-410.7899723 169.6116666 -411.18248064 185.24120103 -406.44140625 195.6484375 C-399.53396807 206.91748299 -390.30538022 212.50030644 -377.6875 215.8125 C-358.57499988 220.21077409 -336.06940175 219.22738693 -317.20703125 213.8984375 C-314.68729501 213.19254306 -312.18466313 212.5642572 -309.63671875 211.9765625 C-289.20507594 207.2167312 -269.90038687 200.05673897 -251 191 C-250.13052734 190.58911133 -249.26105469 190.17822266 -248.36523438 189.75488281 C-233.64982841 182.77066729 -219.74677424 174.72677442 -206 166 C-205.37947754 165.6071582 -204.75895508 165.21431641 -204.11962891 164.80957031 C-189.46758457 155.4648121 -175.52137603 144.90240919 -162 134 C-161.05898438 133.24203125 -160.11796875 132.4840625 -159.1484375 131.703125 C-156.4186801 129.48470544 -153.70630419 127.24695977 -151 125 C-149.99582031 124.17113281 -148.99164062 123.34226562 -147.95703125 122.48828125 C-140.01043003 115.88139314 -132.44403836 108.91606999 -124.93359375 101.8203125 C-122.97411405 99.9756306 -121.00456327 98.14237007 -119.03125 96.3125 C-106.00476298 84.24910434 -106.00476298 84.24910434 -93.94921875 71.23046875 C-91.97334558 68.96949965 -89.94080994 66.76725808 -87.89501953 64.56958008 C-80.65286813 57.35086678 -80.65286813 57.35086678 -75 49 C-75.3141632 46.57846555 -75.69835112 45.31570723 -77.39868164 43.53613281 C-78.27061157 42.87629395 -78.27061157 42.87629395 -79.16015625 42.203125 C-79.78857422 41.71972656 -80.41699219 41.23632812 -81.06445312 40.73828125 C-82.05348633 40.00158203 -82.05348633 40.00158203 -83.0625 39.25 C-84.05733398 38.49009766 -84.05733398 38.49009766 -85.07226562 37.71484375 C-86.7079581 36.46748114 -88.35309584 35.23252182 -90 34 C-86.26992593 30.69351484 -82.01288626 29.36178294 -77.390625 27.734375 C-76.52712433 27.42377136 -75.66362366 27.11316772 -74.7739563 26.79315186 C-71.93472808 25.77283134 -69.0923561 24.76157038 -66.25 23.75 C-62.26686889 22.32147989 -58.28564867 20.88767967 -54.3046875 19.453125 C-53.28939972 19.08783691 -52.27411194 18.72254883 -51.22805786 18.34619141 C-38.82457098 13.87313623 -26.49476985 9.20448137 -14.16894531 4.52246094 C-12.57878412 3.9212026 -10.98861528 3.31996447 -9.3984375 2.71875 C-8.67343048 2.44142029 -7.94842346 2.16409058 -7.20144653 1.87835693 C-2.22581183 0 -2.22581183 0 0 0 Z " fill="#F5C61D" transform="translate(1098,584)"/>
<path d="M0 0 C4.81551226 2.31164111 8.88912305 4.5330961 12 9 C13.16642074 14.18370304 13.01327496 19.29711828 12.90820312 24.57397461 C12.90594459 26.16119268 12.907217 27.7484191 12.91174316 29.33563232 C12.91403344 33.63127303 12.8670878 37.92511735 12.8111515 42.22034144 C12.76105301 46.71390405 12.75643481 51.20751041 12.74694824 55.7013092 C12.72210873 64.20484595 12.65649493 72.70755736 12.57615232 81.21073109 C12.46990957 92.70524003 12.42680961 104.19997557 12.38013458 115.69485188 C12.30496839 133.79718582 12.14557801 151.89777831 12 170 C-14.07 170 -40.14 170 -67 170 C-67.33 157.13 -67.66 144.26 -68 131 C-71.96 134.3 -75.92 137.6 -80 141 C-82.3862379 142.76247966 -84.71285055 144.44962364 -87.1875 146.0625 C-88.11804199 146.67218628 -88.11804199 146.67218628 -89.06738281 147.29418945 C-112.0007169 162.04316851 -138.12053919 172.04761285 -165.64453125 172.203125 C-166.45379562 172.20882507 -167.26306 172.21452515 -168.09684753 172.22039795 C-169.80535602 172.22979274 -171.51388218 172.23635979 -173.22241211 172.24023438 C-175.76776203 172.24983132 -178.31226449 172.28086164 -180.85742188 172.3125 C-196.63036436 172.41368271 -211.81231841 170.27437745 -227 166 C-224.2877766 163.82299279 -221.7964004 162.36232623 -218.5546875 161.1171875 C-217.65975586 160.76350098 -216.76482422 160.40981445 -215.84277344 160.04541016 C-214.8634082 159.6591748 -213.88404297 159.27293945 -212.875 158.875 C-190.17520265 149.65033896 -167.90504349 138.53787991 -147.21386719 125.40185547 C-144.94887811 123.96762882 -142.6680249 122.56190035 -140.3828125 121.16015625 C-122.95049668 110.40002798 -106.05181779 98.7314813 -90 86 C-88.8563943 85.11078754 -87.71182362 84.22281507 -86.56640625 83.3359375 C-79.11146746 77.54937284 -71.83912931 71.58147097 -64.67822266 65.43554688 C-62.91035481 63.92331776 -61.13364683 62.42196278 -59.35546875 60.921875 C-53.61456833 56.06395581 -48.02032829 51.19073067 -42.78125 45.78515625 C-40.96615454 43.96608032 -39.07766083 42.29483496 -37.125 40.625 C-30.18759794 34.64166109 -23.79680578 28.09067698 -17.84765625 21.12890625 C-15.59710218 18.53577312 -13.26623651 16.02308709 -10.9375 13.5 C-6.99801279 9.18761476 -3.36447854 4.77318297 0 0 Z " fill="#F5C61D" transform="translate(1063,681)"/>
<path d="M0 0 C43.56 0 87.12 0 132 0 C117.93516101 16.40897882 102.57986628 31.57143315 87.29982233 46.83450317 C84.25857762 49.87318014 81.2198139 52.91433673 78.18063354 55.95507812 C73.09763665 61.03987986 68.01256644 66.12260095 62.92626953 71.20410156 C57.04317395 77.08171363 51.16374856 82.96297866 45.28613007 88.84606743 C40.21847549 93.91824916 35.14888885 98.98849362 30.07765853 104.0571003 C27.05700271 107.07619678 24.0370278 110.09596605 21.01880264 113.11749268 C18.19573907 115.94343061 15.37026801 118.76693851 12.54286575 121.58853531 C11.50391189 122.62616111 10.4658188 123.66464956 9.42862701 124.70403671 C8.01983363 126.11553863 6.6076893 127.52369373 5.19534302 128.93164062 C4.40456926 129.72203735 3.61379551 130.51243408 2.79905891 131.32678223 C1 133 1 133 0 133 C0 89.11 0 45.22 0 0 Z " fill="#F7B730" transform="translate(462,431)"/>
<path d="M0 0 C11.88 -0.103125 23.76 -0.20625 36 -0.3125 C39.73828125 -0.35802002 43.4765625 -0.40354004 47.328125 -0.45043945 C51.92578125 -0.47302246 51.92578125 -0.47302246 54.08447266 -0.47721863 C55.57836371 -0.48485019 57.07222573 -0.50233931 58.56591797 -0.52787781 C73.74791157 -0.77426792 73.74791157 -0.77426792 79.59739685 3.57933044 C84.95490093 9.00584253 85.49362231 14.9167045 85.49804688 22.296875 C85.47806641 23.39515625 85.45808594 24.4934375 85.4375 25.625 C85.44458984 26.73101563 85.45167969 27.83703125 85.45898438 28.9765625 C85.40622957 35.72917703 85.04401068 40.7000157 80.28125 45.86328125 C79.6934375 46.34152344 79.105625 46.81976562 78.5 47.3125 C77.61828125 48.04919922 77.61828125 48.04919922 76.71875 48.80078125 C73.84539844 50.805597 71.17059258 51.14755923 67.76953125 51.31640625 C66.96708984 51.35830078 66.16464844 51.40019531 65.33789062 51.44335938 C64.50451172 51.48267578 63.67113281 51.52199219 62.8125 51.5625 C61.96751953 51.60568359 61.12253906 51.64886719 60.25195312 51.69335938 C58.16815567 51.79931518 56.08409897 51.9001502 54 52 C61.70641159 62.00992342 61.70641159 62.00992342 72.71484375 67.15234375 C76.88644516 67.55390602 80.73699495 67.20965599 85 67 C85 72.61 85 78.22 85 84 C80.99775335 84.18986562 77.00458914 84.32812159 73 84.4375 C71.87464844 84.49615234 70.74929688 84.55480469 69.58984375 84.61523438 C60.13926393 84.8086673 60.13926393 84.8086673 55.96484375 81.27734375 C54.61310048 79.8800938 53.29552674 78.44952673 52 77 C51.06824012 76.02802866 50.1318503 75.06048322 49.19189453 74.09643555 C47.07248167 71.91830556 44.95750929 69.73615372 42.84960938 67.546875 C42.30844482 66.98548828 41.76728027 66.42410156 41.2097168 65.84570312 C40.10704593 64.69383944 39.01071119 63.53587827 37.9206543 62.37207031 C36.32120913 60.66911898 34.69690858 58.99348285 33.06640625 57.3203125 C32.59110977 56.80058868 32.11581329 56.28086487 31.62611389 55.74539185 C26.99452388 51.07636023 25.50494717 51.83388302 18 51 C18 61.89 18 72.78 18 84 C12.06 84 6.12 84 0 84 C0 56.28 0 28.56 0 0 Z M18 17 C18 22.28 18 27.56 18 33 C34.17 33 50.34 33 67 33 C67 27.72 67 22.44 67 17 C50.83 17 34.66 17 18 17 Z " fill="#000000" transform="translate(831,877)"/>
<path d="M0 0 C0.70269516 -0.00014603 1.40539032 -0.00029205 2.12937927 -0.0004425 C4.45062351 0.00025382 6.77178737 0.00803313 9.09301758 0.01586914 C10.70298722 0.01773431 12.31295744 0.01915775 13.92292786 0.02015686 C18.1594703 0.02397421 22.39597843 0.03379785 26.63250732 0.04486084 C30.9559279 0.05509175 35.27935401 0.05965808 39.6027832 0.06469727 C48.08522257 0.0754208 56.56762748 0.09301129 65.05004883 0.11352539 C65.05004883 5.72352539 65.05004883 11.33352539 65.05004883 17.11352539 C42.94004883 17.11352539 20.83004883 17.11352539 -1.94995117 17.11352539 C-1.94995117 22.39352539 -1.94995117 27.67352539 -1.94995117 33.11352539 C20.16004883 33.11352539 42.27004883 33.11352539 65.05004883 33.11352539 C65.05004883 39.05352539 65.05004883 44.99352539 65.05004883 51.11352539 C42.94004883 51.11352539 20.83004883 51.11352539 -1.94995117 51.11352539 C-1.94995117 56.39352539 -1.94995117 61.67352539 -1.94995117 67.11352539 C20.16004883 67.11352539 42.27004883 67.11352539 65.05004883 67.11352539 C65.05004883 72.72352539 65.05004883 78.33352539 65.05004883 84.11352539 C55.6356707 84.20398804 46.22158246 84.27733427 36.8068676 84.32077408 C32.43496392 84.34162577 28.06337369 84.36989881 23.69165039 84.4152832 C19.47060196 84.45882786 15.24985454 84.48268069 11.02859879 84.49303436 C9.42026152 84.50041033 7.81194024 84.51481406 6.20373154 84.53644562 C3.94625336 84.56559551 1.69000993 84.56947676 -0.56762695 84.56762695 C-2.49289719 84.58095062 -2.49289719 84.58095062 -4.45706177 84.59454346 C-9.72408478 83.86920322 -12.76189103 81.43002447 -16.26245117 77.55102539 C-18.88769333 73.75900894 -19.0815672 70.86107282 -19.11108398 66.36035156 C-19.12069153 65.17869919 -19.13029907 63.99704681 -19.14019775 62.77958679 C-19.14444763 61.50146622 -19.14869751 60.22334564 -19.15307617 58.90649414 C-19.15877625 57.59320633 -19.16447632 56.27991852 -19.17034912 54.92683411 C-19.18084956 52.14522922 -19.18669823 49.36365316 -19.19018555 46.58203125 C-19.19566337 43.0278402 -19.21967964 39.47403358 -19.2481575 35.91996288 C-19.27132988 32.51964759 -19.2732367 29.11938428 -19.27807617 25.71899414 C-19.29042297 24.44694626 -19.30276978 23.17489838 -19.31549072 21.86430359 C-19.31248962 20.67319473 -19.30948853 19.48208588 -19.30639648 18.25488281 C-19.31186493 16.68960091 -19.31186493 16.68960091 -19.31744385 15.09269714 C-18.80427984 10.93260415 -17.28250112 7.57447208 -14.44995117 4.46899414 C-9.41476799 0.54836973 -6.29596165 -0.01098772 0 0 Z " fill="#000000" transform="translate(481.949951171875,876.886474609375)"/>
<path d="M0 0 C0.70269516 -0.00014603 1.40539032 -0.00029205 2.12937927 -0.0004425 C4.45062351 0.00025382 6.77178737 0.00803313 9.09301758 0.01586914 C10.70298722 0.01773431 12.31295744 0.01915775 13.92292786 0.02015686 C18.1594703 0.02397421 22.39597843 0.03379785 26.63250732 0.04486084 C30.9559279 0.05509175 35.27935401 0.05965808 39.6027832 0.06469727 C48.08522257 0.0754208 56.56762748 0.09301129 65.05004883 0.11352539 C65.05004883 5.72352539 65.05004883 11.33352539 65.05004883 17.11352539 C42.94004883 17.11352539 20.83004883 17.11352539 -1.94995117 17.11352539 C-1.94995117 22.39352539 -1.94995117 27.67352539 -1.94995117 33.11352539 C-0.38108154 33.09781494 1.18778809 33.08210449 2.80419922 33.06591797 C8.63927045 33.01151151 14.47431935 32.97713599 20.30957031 32.94873047 C22.83239516 32.93366834 25.35519393 32.91321462 27.87792969 32.88720703 C31.50958707 32.85071156 35.14089741 32.83377279 38.77270508 32.82055664 C39.89588638 32.80507278 41.01906769 32.78958893 42.17628479 32.77363586 C49.10518916 32.77215549 54.5922087 33.08274918 60.01098633 37.83227539 C60.71094727 38.71399414 60.71094727 38.71399414 61.42504883 39.61352539 C61.9071582 40.20133789 62.38926758 40.78915039 62.88598633 41.39477539 C66.31951908 46.46442107 65.27461966 53.067781 65.30004883 58.92602539 C65.32067383 60.10229492 65.34129883 61.27856445 65.36254883 62.49047852 C65.39337163 69.30616948 65.39245231 74.53298629 60.51489258 79.75805664 C55.49779511 83.59466059 53.35675201 84.23777404 47.0300293 84.22705078 C46.30797302 84.22719681 45.58591675 84.22734283 44.84197998 84.22749329 C42.45036842 84.22679546 40.05883432 84.21900914 37.66723633 84.21118164 C36.01099693 84.209317 34.35475699 84.20789331 32.69851685 84.20689392 C28.33537274 84.20307238 23.97226183 84.19324517 19.60913086 84.18218994 C15.15845183 84.17196803 10.70776745 84.16739463 6.25708008 84.16235352 C-2.47861395 84.15162259 -11.21427461 84.13402871 -19.94995117 84.11352539 C-19.94995117 78.50352539 -19.94995117 72.89352539 -19.94995117 67.11352539 C2.16004883 67.11352539 24.27004883 67.11352539 47.05004883 67.11352539 C47.05004883 61.83352539 47.05004883 56.55352539 47.05004883 51.11352539 C45.48641602 51.13447266 43.9227832 51.15541992 42.31176758 51.17700195 C36.4897585 51.24960716 30.66778918 51.29540037 24.84545898 51.33325195 C22.32943992 51.35332055 19.81346722 51.38058169 17.29760742 51.4152832 C13.67330455 51.46400851 10.04962042 51.48654261 6.42504883 51.50415039 C4.7480188 51.5351181 4.7480188 51.5351181 3.03710938 51.56671143 C-4.87256125 51.56896481 -10.45599091 50.51553933 -16.32495117 44.80102539 C-20.0013914 38.72075885 -20.29011994 32.66678517 -20.26245117 25.73852539 C-20.27856445 24.93930664 -20.29467773 24.14008789 -20.3112793 23.31665039 C-20.31660199 16.73779752 -19.43634989 10.2328256 -15.23120117 4.95727539 C-14.64338867 4.51383789 -14.05557617 4.07040039 -13.44995117 3.61352539 C-12.86213867 3.14946289 -12.27432617 2.68540039 -11.66870117 2.20727539 C-7.85981651 -0.2165603 -4.3918428 -0.00766465 0 0 Z " fill="#000000" transform="translate(1034.949951171875,876.886474609375)"/>
<path d="M0 0 C1.19514221 -0.0159874 2.39028442 -0.03197479 3.62164307 -0.04844666 C4.91020203 -0.05380936 6.19876099 -0.05917206 7.52636719 -0.06469727 C8.86912126 -0.07367147 10.21187435 -0.08279345 11.55462646 -0.09205627 C14.36896182 -0.10853145 17.18317847 -0.11624322 19.99755859 -0.11914062 C23.58659022 -0.12451236 27.17448982 -0.16214589 30.76320267 -0.20788479 C33.53780074 -0.23778086 36.31213086 -0.24486692 39.08687592 -0.24586678 C41.04771416 -0.25206714 43.00843522 -0.28147858 44.96905518 -0.31138611 C51.23289475 -0.27986478 56.40501668 -0.17230391 61.52008057 3.73301697 C67.03696798 9.3217191 67.54432447 15.22723983 67.62902832 22.85058594 C67.6209314 24.05287842 67.61283447 25.2551709 67.60449219 26.49389648 C67.61023254 28.37951294 67.61023254 28.37951294 67.61608887 30.30322266 C67.61880292 32.95296137 67.6135163 35.60120842 67.59472656 38.25073242 C67.57193717 41.62661458 67.58507586 45.00122433 67.60901642 48.37705994 C67.62704347 51.62438271 67.61437802 54.87155702 67.60449219 58.11889648 C67.61258911 59.32118896 67.62068604 60.52348145 67.62902832 61.76220703 C67.551459 68.74344585 66.86365465 73.38626556 63.07324219 79.30639648 C58.68959974 83.37692162 56.16382887 84.42943205 50.26586914 84.48339844 C48.43805656 84.50265129 48.43805656 84.50265129 46.57331848 84.52229309 C45.2360576 84.53046265 43.89879212 84.53790597 42.56152344 84.54467773 C41.88807577 84.54875326 41.21462811 84.55282879 40.52077293 84.55702782 C36.95306073 84.57789401 33.38538699 84.59219067 29.81762695 84.6015625 C26.14345164 84.61260032 22.46988644 84.64696703 18.79592609 84.6867342 C15.96220323 84.71296839 13.12862387 84.72126052 10.29479027 84.72484398 C8.28573843 84.73204612 6.27678493 84.75846094 4.26789856 84.78523254 C-2.65448347 84.76882498 -7.38888052 84.64615415 -12.92675781 80.30639648 C-16.68216789 75.46389402 -18.045885 71.90308144 -18.08789062 65.84448242 C-18.09749817 64.72612 -18.10710571 63.60775757 -18.11700439 62.45550537 C-18.12125427 61.24614319 -18.12550415 60.03678101 -18.12988281 58.79077148 C-18.13558289 57.54644348 -18.14128296 56.30211548 -18.14715576 55.02008057 C-18.15661015 52.38387394 -18.1635045 49.74778127 -18.16699219 47.11157227 C-18.17137834 44.41514562 -18.18527464 41.7190387 -18.20800781 39.02270508 C-18.2385057 35.13279515 -18.24904487 31.24328774 -18.25488281 27.35327148 C-18.26722961 26.15200623 -18.27957642 24.95074097 -18.29229736 23.71307373 C-18.27143145 15.84970702 -17.78391405 10.60311522 -12.48925781 4.49389648 C-8.29314872 0.91185213 -5.52305052 0.05593143 0 0 Z M0.07324219 17.30639648 C0.07324219 33.80639648 0.07324219 50.30639648 0.07324219 67.30639648 C16.24324219 67.30639648 32.41324219 67.30639648 49.07324219 67.30639648 C49.07324219 50.80639648 49.07324219 34.30639648 49.07324219 17.30639648 C32.90324219 17.30639648 16.73324219 17.30639648 0.07324219 17.30639648 Z " fill="#000000" transform="translate(756.9267578125,876.693603515625)"/>
<path d="M0 0 C17.8509375 -0.12375 17.8509375 -0.12375 36.0625 -0.25 C41.68357788 -0.30462402 41.68357788 -0.30462402 47.41821289 -0.36035156 C52.02038574 -0.37841797 52.02038574 -0.37841797 54.17991638 -0.3817749 C55.67715723 -0.3878876 57.17437929 -0.40189442 58.67149353 -0.42230225 C60.94938974 -0.45178113 63.22609071 -0.4556177 65.50415039 -0.45410156 C66.78544327 -0.46298401 68.06673615 -0.47186646 69.38685608 -0.48101807 C75.04100345 0.27171891 78.73642344 2.43715531 82.375 6.9375 C85.49311878 12.81395462 85.21368389 18.80737616 85.25 25.3125 C85.270625 26.22451172 85.29125 27.13652344 85.3125 28.07617188 C85.35106729 34.80134362 84.76283597 40.69087601 80.28125 46.05859375 C79.6934375 46.51363281 79.105625 46.96867188 78.5 47.4375 C77.9121875 47.91058594 77.324375 48.38367188 76.71875 48.87109375 C73.40962811 51.04458517 70.5429027 51.12247763 66.70239258 51.11352539 C65.08105156 51.11341209 65.08105156 51.11341209 63.42695618 51.11329651 C62.26125595 51.10813522 61.09555573 51.10297394 59.89453125 51.09765625 C58.70018967 51.0962413 57.50584808 51.09482635 56.27531433 51.09336853 C52.45435092 51.0877635 48.63344575 51.07521011 44.8125 51.0625 C42.22461022 51.05748565 39.63671952 51.05292263 37.04882812 51.04882812 C30.69917817 51.03864261 24.34965441 51.01906803 18 51 C18 61.89 18 72.78 18 84 C12.06 84 6.12 84 0 84 C0 56.28 0 28.56 0 0 Z M18 17 C18 22.28 18 27.56 18 33 C34.17 33 50.34 33 67 33 C67 27.72 67 22.44 67 17 C50.83 17 34.66 17 18 17 Z " fill="#000000" transform="translate(647,877)"/>
<path d="M0 0 C5.61 0 11.22 0 17 0 C17.33 2.64 17.66 5.28 18 8 C19.68049476 10.28073731 21.09575231 11.92686676 23.12890625 13.8125 C23.63800034 14.31168945 24.14709442 14.81087891 24.6716156 15.32519531 C26.28611029 16.90080423 27.92326611 18.45018763 29.5625 20 C30.66761371 21.06996646 31.77114752 22.14156729 32.87304688 23.21484375 C35.56413195 25.82914834 38.27581196 28.42022599 41 31 C46.37655412 28.71583795 50.12374914 24.36136481 54.21899414 20.31640625 C55.67816742 18.88416036 57.15953196 17.47776591 58.64257812 16.0703125 C60.03186523 14.70132813 60.03186523 14.70132813 61.44921875 13.3046875 C62.29830811 12.47952637 63.14739746 11.65436523 64.0222168 10.80419922 C66.70352563 7.46942729 66.70352563 7.46942729 67 0 C72.61 0 78.22 0 84 0 C84.2165625 3.7125 84.2165625 3.7125 84.4375 7.5 C84.50122803 8.26248047 84.56495605 9.02496094 84.63061523 9.81054688 C84.75272122 14.208613 83.91357168 16.61816012 81.03125 19.96875 C79.70702733 21.3317476 78.36186759 22.67461523 77 24 C76.28400635 24.73283203 75.5680127 25.46566406 74.83032227 26.22070312 C72.59527396 28.50243204 70.33360301 30.75419633 68.0625 33 C66.89364258 34.16208984 66.89364258 34.16208984 65.70117188 35.34765625 C63.8030758 37.23410757 61.90266851 39.11816245 60 41 C61.55653071 44.74886556 63.87318329 47.08955008 66.75390625 49.9140625 C67.69041016 50.83960938 68.62691406 51.76515625 69.59179688 52.71875 C70.58168773 53.68785102 71.57192614 54.65659713 72.5625 55.625 C74.50450908 57.53065371 76.44234188 59.44035631 78.37890625 61.3515625 C79.2407251 62.19541504 80.10254395 63.03926758 80.99047852 63.90869141 C84.63445618 67.70097821 84.11806966 71.13750033 84.0625 76.125 C84.041875 78.72375 84.02125 81.3225 84 84 C78.39 84 72.78 84 67 84 C66.505 80.04 66.505 80.04 66 76 C64.31950524 73.71926269 62.90424769 72.07313324 60.87109375 70.1875 C60.36199966 69.68831055 59.85290558 69.18912109 59.3283844 68.67480469 C57.71388971 67.09919577 56.07673389 65.54981237 54.4375 64 C53.33238629 62.93003354 52.22885248 61.85843271 51.12695312 60.78515625 C48.43586805 58.17085166 45.72418804 55.57977401 43 53 C37.62344588 55.28416205 33.87625086 59.63863519 29.78100586 63.68359375 C28.32183258 65.11583964 26.84046804 66.52223409 25.35742188 67.9296875 C23.96813477 69.29867187 23.96813477 69.29867187 22.55078125 70.6953125 C21.27714722 71.9330542 21.27714722 71.9330542 19.9777832 73.19580078 C17.29647437 76.53057271 17.29647437 76.53057271 17 84 C11.39 84 5.78 84 0 84 C-1.06798517 69.99752781 -1.06798517 69.99752781 1.4765625 65.23828125 C3.35516267 63.1661923 5.29873048 61.27157561 7.40625 59.43408203 C10.0478653 57.05711385 12.50474919 54.49790838 14.99780273 51.96704102 C17.97312767 48.95231246 20.98563042 45.97560914 24 43 C22.44346929 39.25113444 20.12681671 36.91044992 17.24609375 34.0859375 C16.30958984 33.16039062 15.37308594 32.23484375 14.40820312 31.28125 C13.41831227 30.31214898 12.42807386 29.34340287 11.4375 28.375 C9.49549092 26.46934629 7.55765812 24.55964369 5.62109375 22.6484375 C4.7592749 21.80458496 3.89745605 20.96073242 3.00952148 20.09130859 C-0.63445618 16.29902179 -0.11806966 12.86249967 -0.0625 7.875 C-0.041875 5.27625 -0.02125 2.6775 0 0 Z " fill="#000000" transform="translate(555,877)"/>
<path d="M0 0 C25.74 0 51.48 0 78 0 C76.21721101 4.45697249 74.16596162 7.8712658 71.375 11.6875 C70.92624512 12.30689453 70.47749023 12.92628906 70.01513672 13.56445312 C66.16660958 18.84165197 62.17579467 23.97694265 58 29 C57.1646875 30.0209375 56.329375 31.041875 55.46875 32.09375 C47.54078333 41.65361692 38.91657202 50.47500823 29.96777344 59.08007812 C28.35000242 60.65850881 26.79599586 62.26721718 25.2578125 63.921875 C17.21326056 71.7715762 13.03781149 69 0 69 C0 46.23 0 23.46 0 0 Z " fill="#403F41" transform="translate(916,636)"/>
<path d="M0 0 C28.05 0 56.1 0 85 0 C85 5.61 85 11.22 85 17 C74.11 17 63.22 17 52 17 C52 39.11 52 61.22 52 84 C46.06 84 40.12 84 34 84 C34 61.89 34 39.78 34 17 C22.78 17 11.56 17 0 17 C0 11.39 0 5.78 0 0 Z " fill="#000000" transform="translate(923,877)"/>
</svg>
